# xmcd
#
# Track frame offsets:
#   150
#   13823
#   31612
#   51330
#   74303
#   94113
#   115069
#   140243
#   159022
#   178321
#   204266
#   223976
#   248669
#   269626
#   296806
#
# Disc length: 4227 seconds
#
# Revision: 0
# Processed by: cddbd v1.5.2PL0 Copyright (c) Steve Scherf et al.
# Submitted via: uFREEDB ActiveX Control 1.5
#
DISCID=e410810f
DTITLE=varios - love ballad큦
DYEAR=1997
DGENRE=R and B
TTITLE0=over you        lane brody
TTITLE1=this time i큞l be sweeter      linda lewis
TTITLE2=piano in the dark            brenda russel
TTITLE3=you toched my life              gwen guthrine
TTITLE4=very special          debra laws
TTITLE5=falling leaves      terry wells
TTITLE6=let큦 fall in love again     cintia hinds
TTITLE7=love on a ton way street
TTITLE8=don큧 ask my neigh bor큦     emotion
TTITLE9=hello strange      carrie lucas
TTITLE10=close to me        michel큞e
TTITLE11=yeah,yeah,yeah      voices
TTITLE12=dangerous lover boy    fresh celeste
TTITLE13=hide and seek     tracy spencer
TTITLE14=sweet love           anita baker
EXTD=
EXTT0=
EXTT1=
EXTT2=
EXTT3=
EXTT4=
EXTT5=
EXTT6=
EXTT7=
EXTT8=
EXTT9=
EXTT10=
EXTT11=
EXTT12=
EXTT13=
EXTT14=
PLAYORDER=
